<svg xmlns="http://www.w3.org/2000/svg" viewBox="0 0 860 400" font-family="DejaVu Sans, Arial, sans-serif"><rect x="0" y="0" width="860" height="400" fill="white"/><text x="430" y="30" text-anchor="middle" font-size="17" font-weight="bold" fill="#0e3a4f">ICRU Target Volumes (nested)</text><ellipse cx="235" cy="200" rx="170" ry="135" fill="#1f7fa0" fill-opacity="0.06" stroke="#1f7fa0" stroke-width="2" stroke-dasharray="6 4"/><ellipse cx="235" cy="200" rx="125" ry="98" fill="#1f7fa0" fill-opacity="0.12" stroke="#1f7fa0" stroke-width="1.6"/><ellipse cx="235" cy="200" rx="84" ry="64" fill="#1f7fa0" fill-opacity="0.22" stroke="#1f7fa0" stroke-width="1.6"/><ellipse cx="235" cy="200" rx="44" ry="32" fill="#c0392b" fill-opacity="0.80" stroke="#8e2a1c" stroke-width="1.6"/><text x="235" y="205" text-anchor="middle" font-size="14" font-weight="bold" fill="white">GTV</text><text x="235" y="128" text-anchor="middle" font-size="11.5" fill="#0e3a4f">CTV</text><text x="235" y="92" text-anchor="middle" font-size="11.5" fill="#0e3a4f">ITV</text><text x="235" y="54" text-anchor="middle" font-size="11.5" fill="#0e3a4f">PTV</text><rect x="450" y="96" width="22" height="16" fill="#c0392b" stroke="#8e2a1c" stroke-width="1.6"/><text x="480" y="109" font-size="12.5" fill="#1b2733">GTV — gross visible tumor (no margin)</text><rect x="450" y="132" width="22" height="16" fill="#1f7fa0" stroke="#1f7fa0" stroke-width="1.6"/><text x="480" y="145" font-size="12.5" fill="#1b2733">CTV — + microscopic spread &amp; nodes</text><rect x="450" y="168" width="22" height="16" fill="#1f7fa0" stroke="#1f7fa0" stroke-width="1.6"/><text x="480" y="181" font-size="12.5" fill="#1b2733">ITV — + internal motion (from 4D-CT)</text><rect x="450" y="204" width="22" height="16" fill="white" stroke="#1f7fa0" stroke-width="1.6" stroke-dasharray="5 3"/><text x="480" y="217" font-size="12.5" fill="#1b2733">PTV — + setup uncertainty</text><circle cx="461" cy="252" r="9" fill="#7a8794"/><circle cx="461" cy="252" r="15" fill="none" stroke="#7a8794" stroke-width="1.4" stroke-dasharray="4 3"/><text x="480" y="256" font-size="12.5" fill="#1b2733">OAR + PRV — organ at risk + its margin</text><text x="430" y="384" text-anchor="middle" font-size="11.5" fill="#7a8794">Each volume contains the one inside it and adds exactly one kind of uncertainty.</text></svg>