<svg xmlns="http://www.w3.org/2000/svg" viewBox="0 0 720 340" font-family="DejaVu Sans, Arial, sans-serif"><rect x="0" y="0" width="720" height="340" fill="white"/><g><text x="172" y="26" text-anchor="middle" font-size="13" font-weight="bold" fill="#0e3a4f">SSD (fixed-distance) setup</text><text x="172" y="322" text-anchor="middle" font-size="12" fill="#1f7fa0">uses PDD tables</text><line x1="44" y1="58" x2="44" y2="200" stroke="#d98a1f" stroke-width="1.5"/><polygon points="44,58 40,68 48,68" fill="#d98a1f"/><polygon points="44,200 40,190 48,190" fill="#d98a1f"/><text x="20" y="175" font-size="11" fill="#d98a1f" transform="rotate(-90 20 175)">SSD 100 cm: source → skin</text><rect x="148" y="40" width="48" height="18" rx="2" fill="#0e3a4f"/><text x="172" y="53" text-anchor="middle" font-size="11" fill="white">source</text><line x1="172" y1="58" x2="88" y2="288" stroke="#7a8794" stroke-width="1"/><line x1="172" y1="58" x2="256" y2="288" stroke="#7a8794" stroke-width="1"/><line x1="78" y1="200" x2="266" y2="200" stroke="#1b2733" stroke-width="1.5"/><text x="270" y="204" font-size="10" fill="#1b2733">skin</text><line x1="172" y1="200" x2="172" y2="270" stroke="#1f7fa0" stroke-width="1.4" stroke-dasharray="3 3"/><circle cx="172" cy="270" r="5" fill="#1f7fa0"/><text x="182" y="274" font-size="10" fill="#1f7fa0">point at depth d</text></g><line x1="360" y1="20" x2="360" y2="320" stroke="#dde6ec"/><g transform="translate(360,0)"><text x="172" y="26" text-anchor="middle" font-size="13" font-weight="bold" fill="#0e3a4f">SAD (isocentric) setup</text><text x="172" y="322" text-anchor="middle" font-size="12" fill="#1f7fa0">uses TMR / TPR tables</text><line x1="44" y1="58" x2="44" y2="280" stroke="#d98a1f" stroke-width="1.5"/><polygon points="44,58 40,68 48,68" fill="#d98a1f"/><polygon points="44,280 40,270 48,270" fill="#d98a1f"/><text x="20" y="175" font-size="11" fill="#d98a1f" transform="rotate(-90 20 175)">SAD 100 cm: source → isocenter</text><rect x="148" y="40" width="48" height="18" rx="2" fill="#0e3a4f"/><text x="172" y="53" text-anchor="middle" font-size="11" fill="white">source</text><line x1="172" y1="58" x2="88" y2="288" stroke="#7a8794" stroke-width="1"/><line x1="172" y1="58" x2="256" y2="288" stroke="#7a8794" stroke-width="1"/><line x1="78" y1="210" x2="266" y2="210" stroke="#1b2733" stroke-width="1.5"/><text x="270" y="214" font-size="10" fill="#1b2733">skin</text><line x1="172" y1="210" x2="172" y2="280" stroke="#1f7fa0" stroke-width="1.4" stroke-dasharray="3 3"/><circle cx="172" cy="280" r="5" fill="#1f7fa0"/><text x="182" y="284" font-size="10" fill="#1f7fa0">isocenter at depth d</text><line x1="162" y1="280" x2="182" y2="280" stroke="#1f7fa0" stroke-width="1.4"/></g></svg>